ply
format ascii 1.0
comment created by gply, a Houdini tool.
comment converted from .[b]geo
comment for more information about Houdini, try:
comment www.sidefx.com
element vertex 180
property float x
property float y
property float z
property float nx
property float ny
property float nz
element face 178
property list uchar int vertex_indices
end_header
-0.671640992 -0.0645859987 -1.25132704 -0.451999992 -0.126699999 -0.883000016 
-0.982650995 -0.115607001 -1.04713905 -0.625400007 -0.198300004 -0.754599988 
-0.671640992 0.129238993 -1.25132704 -0.452499986 0.125400007 -0.8829 
-0.982650995 0.180260003 -1.04713905 -0.625999987 0.197799996 -0.754299998 
0.500424981 -0.0645859987 -1.23731995 0.476599991 -0.1184 -0.871100008 
0.806465983 -0.115607001 -1.02575696 0.646200001 -0.196700007 -0.737399995 
0.500424981 0.129238993 -1.23731995 0.4745 0.124600001 -0.871399999 
0.806465983 0.180260003 -1.02575696 0.64349997 0.199200004 -0.739099979 
-1.13520801 -0.140467003 -0.862981975 -0.812699974 -0.255499989 -0.523599982 
-1.13520801 0.205120996 -0.862981975 -0.812699974 0.255499989 -0.523599982 
0.954577982 0.205120996 -0.83800602 0.822399974 0.259900004 -0.505999982 
0.954577982 -0.140467003 -0.83800602 0.822399974 -0.259900004 -0.505999982 
-0.204568997 0.0524130017 -1.45487905 -0.118799999 0.0303000007 -0.992500007 
-0.204568997 0.0122410003 -1.45487905 -0.118699998 -0.0307 -0.992500007 
0.038350001 0.0524130017 -1.45197499 0.144199997 0.0285 -0.989099979 
0.038350001 0.0122410003 -1.45197499 0.144400001 -0.0263999999 -0.989199996 
0.266011 0.454710007 -1.24012101 0.304199994 0.415499985 -0.857200027 
0.0315980017 0.570490003 -1.24292302 0.153799996 0.487599999 -0.859399974 
-0.202814996 0.570490003 -1.24572396 -0.133300006 0.487599999 -0.862800002 
-0.437227994 0.454710007 -1.24852598 -0.282499999 0.416299999 -0.864199996 
-0.624827981 0.677079976 -1.04286301 -0.398499995 0.554799974 -0.730300009 
-0.267004013 0.853814006 -1.03858602 -0.183200002 0.662899971 -0.726000011 
0.0908190012 0.853814006 -1.03430998 0.200499997 0.662899971 -0.721400023 
0.448641986 0.677079976 -1.03003299 0.416700006 0.554099977 -0.720600009 
-0.437227994 -0.390056998 -1.24852598 -0.283399999 -0.415300012 -0.864400029 
-0.202814996 -0.505837023 -1.24572396 -0.133300006 -0.487599999 -0.862800002 
0.0315980017 -0.505837023 -1.24292302 0.153799996 -0.487599999 -0.859399974 
0.266011 -0.390056998 -1.24012101 0.300300002 -0.419800013 -0.85650003 
0.448641986 -0.612425983 -1.03003299 0.416099995 -0.556500018 -0.719200015 
0.0908190012 -0.789160013 -1.03430998 0.200499997 -0.662899971 -0.721400023 
-0.267004997 -0.789160013 -1.03858602 -0.183200002 -0.662899971 -0.726000011 
-0.624827981 -0.612425983 -1.04286301 -0.398600012 -0.55430001 -0.730700016 
-0.717251003 0.785432994 -0.857985973 -0.512199998 0.7051 -0.490399987 
-0.299293995 0.991868019 -0.852990985 -0.237800002 0.845399976 -0.478199989 
0.118662998 0.991868019 -0.847995996 0.248799995 0.844500005 -0.474299997 
0.536620975 0.785432994 -0.843001008 0.525099993 0.702899992 -0.479799986 
0.536620021 -0.720780015 -0.843001008 0.525099993 -0.702899992 -0.479799986 
0.118662998 -0.92721498 -0.847995996 0.248799995 -0.844500005 -0.474299997 
-0.299293995 -0.92721498 -0.852991998 -0.237800002 -0.845399976 -0.478199989 
-0.717251003 -0.720780015 -0.857986987 -0.512199998 -0.7051 -0.490399987 
-0.0102329999 0.119869001 -1.45255601 0.112199999 0.138099998 -0.984000027 
-0.0588169992 0.143865004 -1.45313704 0.0753000006 0.192900002 -0.978299975 
-0.107400998 0.143865004 -1.45371699 -0.0518999994 0.192900002 -0.979799986 
-0.155984998 0.119869001 -1.45429802 -0.0905999988 0.140900001 -0.985899985 
-0.155984998 -0.0552150011 -1.45429802 -0.0912000015 -0.140000001 -0.985899985 
-0.107400998 -0.0792120025 -1.45371699 -0.0518999994 -0.192900002 -0.979799986 
-0.0588169992 -0.0792120025 -1.45313704 0.0753000006 -0.192900002 -0.978299975 
-0.0102329999 -0.0552150011 -1.45255601 0.109899998 -0.1417 -0.983799994 
-0.0856079981 0.587863028 -1.24432302 0.0103000002 0.508700013 -0.860899985 
-0.0880929977 0.880333006 -1.036448 0.00860000029 0.691299975 -0.722500026 
-0.0856079981 -0.523209989 -1.24432302 0.0103000002 -0.508700013 -0.860899985 
-0.0880929977 -0.815680027 -1.036448 0.00860000029 -0.691299975 -0.722500026 
-0.0903149992 1.02284396 -0.850494027 0.0055999998 0.879100025 -0.476500005 
-0.0903149992 -0.958190978 -0.850494027 0.0055999998 -0.879100025 -0.476500005 
-0.0831089988 0.147466004 -1.45342696 0.0116999997 0.221200004 -0.975199997 
-0.0831089988 -0.0828119963 -1.45342696 0.0116999997 -0.221200004 -0.975199997 
-1.25520504 -0.160188004 -0.536257029 -0.92900002 -0.269499987 -0.253500015 
-1.25520504 0.224840999 -0.536257029 -0.92900002 0.269499987 -0.253500015 
1.07307804 0.224840999 -0.508431971 0.930100024 0.280600011 -0.2368 
1.07307804 -0.160188004 -0.508431971 0.930100024 -0.280600011 -0.2368 
-0.78954798 0.871381998 -0.530691981 -0.568300009 0.789399981 -0.232299998 
-0.323891997 1.10137701 -0.525126994 -0.267800003 0.936699986 -0.225500003 
0.141764998 1.10137701 -0.519562006 0.273099989 0.936100006 -0.221399993 
0.607421994 0.871381998 -0.513997018 0.577899992 0.785300016 -0.222299993 
0.607420981 -0.806729019 -0.513997018 0.577899992 -0.785300016 -0.222299993 
0.141764998 -1.03672302 -0.519562006 0.273099989 -0.936100006 -0.221399993 
-0.323891997 -1.03672302 -0.525126994 -0.267800003 -0.936699986 -0.225500003 
-0.789548993 -0.806729019 -0.530691981 -0.568300009 -0.789399981 -0.232299998 
-0.0910630003 1.13588798 -0.522345006 0.0027999999 0.974399984 -0.224700004 
-0.0910639986 -1.07123399 -0.522345006 0.0027999999 -0.974399984 -0.224700004 
-1.31038594 -0.168537006 -0.144344002 -0.960600019 -0.267699987 -0.0744000003 
-1.31038594 0.233190998 -0.144344002 -0.960600019 0.267699987 -0.0744000003 
0.633023977 0.907772005 -0.121119 0.589299977 0.805999994 -0.0559 
1.11887705 0.233190998 -0.115313001 0.957300007 0.283300012 -0.0577999987 
1.11887705 -0.168537006 -0.115313001 0.957300007 -0.283300012 -0.0577999987 
-0.824532986 -0.843119025 -0.138538003 -0.581900001 -0.810599983 -0.0659999996 
-0.824532986 0.907772005 -0.138538003 -0.581900001 0.810599983 -0.0659999996 
-0.338681012 1.14774203 -0.132732004 -0.277099997 0.958800018 -0.0621999986 
-0.0957539976 1.18375003 -0.129828006 0.000699999975 0.998199999 -0.0604999997 
0.147172004 1.14774203 -0.126925007 0.278299987 0.958700001 -0.0577999987 
0.633023977 -0.843119025 -0.121119 0.589299977 -0.805999994 -0.0559 
0.147172004 -1.08308899 -0.126925007 0.278299987 -0.958700001 -0.0577999987 
-0.0957550034 -1.11909604 -0.129829004 0.000699999975 -0.998199999 -0.0604999997 
-0.338681012 -1.08308899 -0.132732004 -0.277099997 -0.958800018 -0.0621999986 
-1.31208205 -0.168537006 0.29075399 -0.950900018 -0.267399997 0.156000003 
-1.31208205 0.233190998 0.29075399 -0.950900018 0.267399997 0.156000003 
0.631329 0.907772005 0.313980013 0.580799997 0.799099982 0.155599996 
1.11718094 0.23319 0.319786012 0.943499982 0.284200013 0.1708 
1.11718094 -0.168537006 0.319786012 0.943499982 -0.284200013 0.1708 
-0.826228976 -0.843119025 0.296559989 -0.577499986 -0.803200006 0.146200001 
-0.826228976 0.907772005 0.296559989 -0.577499986 0.803200006 0.146200001 
-0.34037599 1.14774203 0.302367002 -0.275299996 0.950200021 0.145999998 
-0.097450003 1.18374896 0.305269986 -0.00170000002 0.988900006 0.148699999 
0.145475999 1.14774203 0.308173001 0.272000015 0.950500011 0.150399998 
0.631329 -0.843119025 0.313980013 0.580799997 -0.799099982 0.155599996 
0.145475999 -1.08308899 0.308173001 0.272000015 -0.950500011 0.150399998 
-0.097450003 -1.11909604 0.305269986 -0.00170000002 -0.988900006 0.148699999 
-0.34037599 -1.08308899 0.302367002 -0.275299996 -0.950200021 0.145999998 
-1.17730796 -0.145392999 0.72607398 -0.87440002 -0.263099998 0.407599986 
-1.17730796 0.210045993 0.72607398 -0.87440002 0.263099998 0.407599986 
0.542172015 0.806899011 0.746623993 0.544399977 0.739300013 0.396299988 
0.972042024 0.210045993 0.751761019 0.861800015 0.275599986 0.425799996 
0.972042024 -0.145392999 0.751761019 0.861800015 -0.275599986 0.425799996 
-0.747438014 -0.742245018 0.731211007 -0.548399985 -0.742799997 0.384200007 
-0.747438014 0.806899011 0.73121202 -0.548399985 0.742799997 0.384200007 
-0.317568004 1.01921797 0.736348987 -0.261099994 0.887099981 0.380699992 
-0.102632999 1.05107605 0.738918006 -0.0046000001 0.922699988 0.385500014 
0.112301998 1.01921797 0.741486013 0.251899987 0.887099981 0.386799991 
0.542172015 -0.742245018 0.746623993 0.544399977 -0.739300013 0.396299988 
0.112301998 -0.954563975 0.741486013 0.251899987 -0.887099981 0.386799991 
-0.102632999 -0.986423016 0.738918006 -0.0046000001 -0.922699988 0.385500014 
-0.317568004 -0.954563975 0.736348987 -0.261099994 -0.887099981 0.380699992 
-0.980702996 -0.112182997 1.081056 -0.61680001 -0.204699993 0.760100007 
-0.980702996 0.176835999 1.081056 -0.61680001 0.204699993 0.760100007 
0.417468011 0.662159026 1.09776497 0.374500006 0.51819998 0.768899977 
0.767010987 0.176835999 1.10194194 0.569700003 0.193599999 0.798699975 
0.767010987 -0.112182997 1.10194194 0.569700003 -0.193599999 0.798699975 
-0.631160021 -0.597505987 1.08523297 -0.402799994 -0.534699976 0.742799997 
-0.631160021 0.662159026 1.08523297 -0.402799994 0.534699976 0.742799997 
-0.281617999 0.834802985 1.08940995 -0.193299994 0.647000015 0.737600029 
-0.106845997 0.860707998 1.09149897 -0.0083999997 0.676999986 0.735899985 
0.0679249987 0.834802985 1.09358799 0.174099997 0.638899982 0.749300003 
0.417468011 -0.597505987 1.09776497 0.374500006 -0.51819998 0.768899977 
0.0679249987 -0.770150006 1.09358799 0.174099997 -0.638899982 0.749300003 
-0.106845997 -0.796055019 1.09149897 -0.0083999997 -0.676999986 0.735899985 
-0.281617999 -0.770150006 1.08940995 -0.193299994 -0.647000015 0.737600029 
-0.521279991 -0.0302220006 1.33588696 -0.150600001 -0.0454999991 0.987500012 
-0.521279991 0.0948750004 1.33588696 -0.150600001 0.0454999991 0.987500012 
0.0838960037 0.304939002 1.34311903 0.0996000022 0.131799996 0.986299992 
0.235190004 0.0948750004 1.34492695 0.116800003 0.0408000015 0.992299974 
0.235190004 -0.0302220006 1.34492695 0.116800003 -0.0408000015 0.992299974 
-0.369985998 -0.240285993 1.337695 -0.130400002 -0.136099994 0.98210001 
-0.369985998 0.304939002 1.337695 -0.130400002 0.136099994 0.98210001 
-0.218692005 0.379666001 1.33950305 -0.0798000023 0.207399994 0.975000024 
-0.143044993 0.390879005 1.34040701 -0.0120999999 0.236499995 0.971599996 
-0.0673979968 0.379666001 1.34131098 0.0542000011 0.203099996 0.977599978 
0.0838960037 -0.240285993 1.34311903 0.0996000022 -0.131799996 0.986299992 
-0.0673979968 -0.315012991 1.34131098 0.0542000011 -0.203099996 0.977599978 
-0.143044993 -0.326225013 1.34040701 -0.0120999999 -0.236499995 0.971599996 
-0.218692005 -0.315012991 1.33950305 -0.0798000023 -0.207399994 0.975000024 
-0.578356028 0.331207007 -1.24992704 -0.392199993 0.308200002 -0.866699994 
-0.807559013 -0.364015996 -1.04500103 -0.55400002 -0.409500003 -0.724799991 
-0.953467011 -0.430624008 -0.860484004 -0.699999988 -0.507700026 -0.502200007 
-0.181622997 0.0861409977 -1.45458806 -0.0996000022 0.0785000026 -0.991900027 
-0.807559013 0.428669989 -1.04500103 -0.554400027 0.4102 -0.724099994 
-0.578356028 -0.262986988 -1.24992704 -0.393400013 -0.306899995 -0.866599977 
-0.953467011 0.495276988 -0.860484004 -0.699999988 0.507700026 -0.502200007 
-0.181622997 -0.0214869995 -1.45458806 -0.0998999998 -0.0784000009 -0.991900027 
-1.06799603 -0.483458012 -0.533474982 -0.787 -0.567799985 -0.2412 
-1.06799603 0.548111975 -0.533474982 -0.787 0.567799985 -0.2412 
-1.12169802 -0.505828023 -0.141441002 -0.810100019 -0.582099974 -0.0702000037 
-1.12169802 0.570481002 -0.141441002 -0.810100019 0.582099974 -0.0702000037 
-1.12371802 -0.505828023 0.293657005 -0.803300023 -0.576399982 0.150299996 
-1.12371802 0.570481002 0.293657005 -0.803300023 0.576399982 0.150299996 
-0.996519983 -0.443818986 0.728643 -0.748899996 -0.534699976 0.391400009 
-0.996519983 0.508472025 0.728643 -0.748899996 0.534699976 0.391400009 
-0.810171008 -0.354844004 1.08314395 -0.550599992 -0.389600009 0.738200009 
-0.810171008 0.419497997 1.08314502 -0.550599992 0.389600009 0.738200009 
-0.445187002 -0.135253996 1.33679104 -0.132400006 -0.0865999982 0.987399995 
-0.445187002 0.199907005 1.33679104 -0.132400006 0.0865999982 0.987399995 
0.633304 0.428669989 -1.02789497 0.57190001 0.40959999 -0.710699975 
0.411408007 -0.266553015 -1.23872101 0.409999996 -0.309799999 -0.857800007 
0.768078029 0.495276988 -0.840503991 0.712100029 0.508400023 -0.484100014 
0.0220330004 -0.0214869995 -1.45226598 0.126300007 -0.0813999996 -0.988600016 
0.407840997 0.32050699 -1.23872101 0.414299995 0.305599988 -0.857299984 
0.633304 -0.364015996 -1.02789497 0.573599994 -0.412499994 -0.707700014 
0.768078029 -0.430624008 -0.840503991 0.712100029 -0.508400023 -0.484100014 
0.0220330004 0.0861409977 -1.45226598 0.127499998 0.0815000013 -0.988499999 
0.876142025 0.548111975 -0.511214018 0.791800022 0.567799985 -0.224900007 
0.876142025 -0.483458012 -0.511214018 0.791800022 -0.567799985 -0.224900007 
0.916902006 0.570481002 -0.118216 0.810899973 0.582599998 -0.0553000011 
0.916902006 -0.505828023 -0.118216 0.810899973 -0.582599998 -0.0553000011 
0.914965987 0.570481002 0.316882998 0.800400019 0.577600002 0.1602 
0.914965987 -0.505828023 0.316882998 0.800400019 -0.577600002 0.1602 
0.781216979 0.508472025 0.749193013 0.741299987 0.536599994 0.403100014 
0.781216979 -0.443818986 0.749193013 0.741299987 -0.536599994 0.403100014 
0.592984974 0.419497997 1.09985399 0.509800017 0.374900013 0.774299979 
0.592984974 -0.354844987 1.09985399 0.509800017 -0.374900013 0.774299979 
0.175537005 0.199907005 1.34402299 0.110399999 0.0863000005 0.990100026 
0.175537005 -0.135253996 1.34402299 0.110399999 -0.0863000005 0.990100026 
4 0 2 3 1 
4 164 6 7 160 
4 6 4 5 7 
4 145 0 1 141 
4 6 14 15 4 
4 5 11 10 7 
4 37 65 64 36 
4 3 9 8 1 
4 165 166 11 5 
4 144 146 9 3 
4 167 163 15 14 
4 145 147 13 0 
4 164 167 14 6 
4 0 13 12 2 
4 140 143 43 19 
4 19 43 42 18 
4 48 54 41 17 
4 17 41 40 16 
4 161 163 47 27 
4 27 47 46 26 
4 50 55 45 25 
4 25 45 44 24 
4 143 147 44 43 
4 43 44 45 42 
4 54 55 46 41 
4 41 46 47 40 
4 160 162 35 23 
4 23 35 34 22 
4 49 52 33 21 
4 21 33 32 20 
4 141 142 39 31 
4 31 39 38 30 
4 51 53 37 29 
4 29 37 36 28 
4 9 57 56 8 
4 166 169 59 11 
4 35 63 62 34 
4 34 62 68 52 
4 161 27 28 165 
4 27 26 29 28 
4 50 25 30 51 
4 25 24 31 30 
4 140 19 20 144 
4 19 18 21 20 
4 48 17 22 49 
4 17 16 23 22 
4 18 48 49 21 
4 26 50 51 29 
4 53 69 65 37 
4 30 38 53 51 
4 22 34 52 49 
4 42 45 55 54 
4 26 46 55 50 
4 18 42 54 48 
4 69 82 81 65 
4 59 74 73 58 
4 65 81 80 64 
4 68 78 77 61 
4 168 170 72 63 
4 169 171 74 59 
4 38 66 69 53 
4 162 168 63 35 
4 11 59 58 10 
4 39 67 66 38 
4 146 149 57 9 
4 52 68 61 33 
4 142 148 67 39 
4 33 61 60 32 
4 151 153 85 71 
4 75 89 97 83 
4 150 152 89 75 
4 83 97 96 82 
4 82 96 95 81 
4 74 88 87 73 
4 66 83 82 69 
4 148 150 75 67 
4 67 75 83 66 
4 149 151 71 57 
4 61 77 76 60 
4 62 79 78 68 
4 63 72 79 62 
4 57 71 70 56 
4 85 99 98 84 
4 86 100 107 93 
4 93 107 106 92 
4 91 105 104 90 
4 153 155 99 85 
4 89 103 111 97 
4 77 91 90 76 
4 79 93 92 78 
4 72 86 93 79 
4 71 85 84 70 
4 171 173 88 74 
4 170 172 86 72 
4 78 92 91 77 
4 81 95 94 80 
4 106 120 119 105 
4 174 176 114 100 
4 175 177 116 102 
4 99 113 112 98 
4 100 114 121 107 
4 107 121 120 106 
4 173 175 102 88 
4 172 174 100 86 
4 92 106 105 91 
4 95 109 108 94 
4 88 102 101 87 
4 96 110 109 95 
4 97 111 110 96 
4 152 154 103 89 
4 124 138 137 123 
4 116 130 129 115 
4 123 137 136 122 
4 120 134 133 119 
4 176 178 128 114 
4 177 179 130 116 
4 109 123 122 108 
4 102 116 115 101 
4 110 124 123 109 
4 111 125 124 110 
4 154 156 117 103 
4 103 117 125 111 
4 155 157 113 99 
4 105 119 118 104 
4 159 158 126 127 
4 178 179 136 128 
4 128 136 137 135 
4 134 138 139 133 
4 133 139 131 132 
4 135 137 138 134 
4 125 139 138 124 
4 156 158 131 117 
4 117 131 139 125 
4 157 159 127 113 
4 119 133 132 118 
4 121 135 134 120 
4 114 128 135 121 
4 113 127 126 112 
4 118 132 159 157 
4 112 126 158 156 
4 132 131 158 159 
4 104 118 157 155 
4 98 112 156 154 
4 84 98 154 152 
4 90 104 155 153 
4 60 76 151 149 
4 56 70 150 148 
4 70 84 152 150 
4 76 90 153 151 
4 8 56 148 142 
4 32 60 149 146 
4 2 140 144 3 
4 1 8 142 141 
4 12 13 147 143 
4 2 12 143 140 
4 24 44 147 145 
4 20 32 146 144 
4 24 145 141 31 
4 129 130 179 178 
4 122 136 179 177 
4 115 129 178 176 
4 87 101 174 172 
4 94 108 175 173 
4 108 122 177 175 
4 101 115 176 174 
4 73 87 172 170 
4 80 94 173 171 
4 10 58 168 162 
4 64 80 171 169 
4 58 73 170 168 
4 4 161 165 5 
4 36 64 169 166 
4 7 10 162 160 
4 4 15 163 161 
4 16 40 167 164 
4 40 47 163 167 
4 28 36 166 165 
4 16 164 160 23 
