# Blender 4.4.3
# www.blender.org
mtllib kiwi_out.mtl
o Cube
v -0.671641 -0.064586 -1.251327
v -0.982651 -0.115607 -1.047139
v -0.671641 0.129239 -1.251327
v -0.982651 0.180260 -1.047139
v 0.500425 -0.064586 -1.237320
v 0.806466 -0.115607 -1.025757
v 0.500425 0.129239 -1.237320
v 0.806466 0.180260 -1.025757
v -1.135208 -0.140467 -0.862982
v -1.135208 0.205121 -0.862982
v 0.954578 0.205121 -0.838006
v 0.954578 -0.140467 -0.838006
v -0.204569 0.052413 -1.454879
v -0.204569 0.012241 -1.454879
v 0.038350 0.052413 -1.451975
v 0.038350 0.012241 -1.451975
v 0.266011 0.454710 -1.240121
v 0.031598 0.570490 -1.242923
v -0.202815 0.570490 -1.245724
v -0.437228 0.454710 -1.248526
v -0.624828 0.677080 -1.042863
v -0.267004 0.853814 -1.038586
v 0.090819 0.853814 -1.034310
v 0.448642 0.677080 -1.030033
v -0.437228 -0.390057 -1.248526
v -0.202815 -0.505837 -1.245724
v 0.031598 -0.505837 -1.242923
v 0.266011 -0.390057 -1.240121
v 0.448642 -0.612426 -1.030033
v 0.090819 -0.789160 -1.034310
v -0.267005 -0.789160 -1.038586
v -0.624828 -0.612426 -1.042863
v -0.717251 0.785433 -0.857986
v -0.299294 0.991868 -0.852991
v 0.118663 0.991868 -0.847996
v 0.536621 0.785433 -0.843001
v 0.536620 -0.720780 -0.843001
v 0.118663 -0.927215 -0.847996
v -0.299294 -0.927215 -0.852992
v -0.717251 -0.720780 -0.857987
v -0.010233 0.119869 -1.452556
v -0.058817 0.143865 -1.453137
v -0.107401 0.143865 -1.453717
v -0.155985 0.119869 -1.454298
v -0.155985 -0.055215 -1.454298
v -0.107401 -0.079212 -1.453717
v -0.058817 -0.079212 -1.453137
v -0.010233 -0.055215 -1.452556
v -0.085608 0.587863 -1.244323
v -0.088093 0.880333 -1.036448
v -0.085608 -0.523210 -1.244323
v -0.088093 -0.815680 -1.036448
v -0.090315 1.022844 -0.850494
v -0.090315 -0.958191 -0.850494
v -0.083109 0.147466 -1.453427
v -0.083109 -0.082812 -1.453427
v -1.255205 -0.160188 -0.536257
v -1.255205 0.224841 -0.536257
v 1.073078 0.224841 -0.508432
v 1.073078 -0.160188 -0.508432
v -0.789548 0.871382 -0.530692
v -0.323892 1.101377 -0.525127
v 0.141765 1.101377 -0.519562
v 0.607422 0.871382 -0.513997
v 0.607421 -0.806729 -0.513997
v 0.141765 -1.036723 -0.519562
v -0.323892 -1.036723 -0.525127
v -0.789549 -0.806729 -0.530692
v -0.091063 1.135888 -0.522345
v -0.091064 -1.071234 -0.522345
v -1.310386 -0.168537 -0.144344
v -1.310386 0.233191 -0.144344
v 0.633024 0.907772 -0.121119
v 1.118877 0.233191 -0.115313
v 1.118877 -0.168537 -0.115313
v -0.824533 -0.843119 -0.138538
v -0.824533 0.907772 -0.138538
v -0.338681 1.147742 -0.132732
v -0.095754 1.183750 -0.129828
v 0.147172 1.147742 -0.126925
v 0.633024 -0.843119 -0.121119
v 0.147172 -1.083089 -0.126925
v -0.095755 -1.119096 -0.129829
v -0.338681 -1.083089 -0.132732
v -1.312082 -0.168537 0.290754
v -1.312082 0.233191 0.290754
v 0.631329 0.907772 0.313980
v 1.117181 0.233190 0.319786
v 1.117181 -0.168537 0.319786
v -0.826229 -0.843119 0.296560
v -0.826229 0.907772 0.296560
v -0.340376 1.147742 0.302367
v -0.097450 1.183749 0.305270
v 0.145476 1.147742 0.308173
v 0.631329 -0.843119 0.313980
v 0.145476 -1.083089 0.308173
v -0.097450 -1.119096 0.305270
v -0.340376 -1.083089 0.302367
v -1.177308 -0.145393 0.726074
v -1.177308 0.210046 0.726074
v 0.542172 0.806899 0.746624
v 0.972042 0.210046 0.751761
v 0.972042 -0.145393 0.751761
v -0.747438 -0.742245 0.731211
v -0.747438 0.806899 0.731212
v -0.317568 1.019218 0.736349
v -0.102633 1.051076 0.738918
v 0.112302 1.019218 0.741486
v 0.542172 -0.742245 0.746624
v 0.112302 -0.954564 0.741486
v -0.102633 -0.986423 0.738918
v -0.317568 -0.954564 0.736349
v -0.980703 -0.112183 1.081056
v -0.980703 0.176836 1.081056
v 0.417468 0.662159 1.097765
v 0.767011 0.176836 1.101942
v 0.767011 -0.112183 1.101942
v -0.631160 -0.597506 1.085233
v -0.631160 0.662159 1.085233
v -0.281618 0.834803 1.089410
v -0.106846 0.860708 1.091499
v 0.067925 0.834803 1.093588
v 0.417468 -0.597506 1.097765
v 0.067925 -0.770150 1.093588
v -0.106846 -0.796055 1.091499
v -0.281618 -0.770150 1.089410
v -0.521280 -0.030222 1.335887
v -0.521280 0.094875 1.335887
v 0.083896 0.304939 1.343119
v 0.235190 0.094875 1.344927
v 0.235190 -0.030222 1.344927
v -0.369986 -0.240286 1.337695
v -0.369986 0.304939 1.337695
v -0.218692 0.379666 1.339503
v -0.143045 0.390879 1.340407
v -0.067398 0.379666 1.341311
v 0.083896 -0.240286 1.343119
v -0.067398 -0.315013 1.341311
v -0.143045 -0.326225 1.340407
v -0.218692 -0.315013 1.339503
v -0.578356 0.331207 -1.249927
v -0.807559 -0.364016 -1.045001
v -0.953467 -0.430624 -0.860484
v -0.181623 0.086141 -1.454588
v -0.807559 0.428670 -1.045001
v -0.578356 -0.262987 -1.249927
v -0.953467 0.495277 -0.860484
v -0.181623 -0.021487 -1.454588
v -1.067996 -0.483458 -0.533475
v -1.067996 0.548112 -0.533475
v -1.121698 -0.505828 -0.141441
v -1.121698 0.570481 -0.141441
v -1.123718 -0.505828 0.293657
v -1.123718 0.570481 0.293657
v -0.996520 -0.443819 0.728643
v -0.996520 0.508472 0.728643
v -0.810171 -0.354844 1.083144
v -0.810171 0.419498 1.083145
v -0.445187 -0.135254 1.336791
v -0.445187 0.199907 1.336791
v 0.633304 0.428670 -1.027895
v 0.411408 -0.266553 -1.238721
v 0.768078 0.495277 -0.840504
v 0.022033 -0.021487 -1.452266
v 0.407841 0.320507 -1.238721
v 0.633304 -0.364016 -1.027895
v 0.768078 -0.430624 -0.840504
v 0.022033 0.086141 -1.452266
v 0.876142 0.548112 -0.511214
v 0.876142 -0.483458 -0.511214
v 0.916902 0.570481 -0.118216
v 0.916902 -0.505828 -0.118216
v 0.914966 0.570481 0.316883
v 0.914966 -0.505828 0.316883
v 0.781217 0.508472 0.749193
v 0.781217 -0.443819 0.749193
v 0.592985 0.419498 1.099854
v 0.592985 -0.354845 1.099854
v 0.175537 0.199907 1.344023
v 0.175537 -0.135254 1.344023
vn -0.4520 -0.1267 -0.8830
vn -0.6254 -0.1983 -0.7546
vn -0.4525 0.1254 -0.8829
vn -0.6260 0.1978 -0.7543
vn 0.4766 -0.1184 -0.8711
vn 0.6462 -0.1967 -0.7374
vn 0.4745 0.1246 -0.8714
vn 0.6435 0.1992 -0.7391
vn -0.8127 -0.2555 -0.5236
vn -0.8127 0.2555 -0.5236
vn 0.8224 0.2599 -0.5060
vn 0.8224 -0.2599 -0.5060
vn -0.1188 0.0303 -0.9925
vn -0.1187 -0.0307 -0.9925
vn 0.1442 0.0285 -0.9891
vn 0.1444 -0.0264 -0.9892
vn 0.3042 0.4155 -0.8572
vn 0.1538 0.4876 -0.8594
vn -0.1333 0.4876 -0.8628
vn -0.2825 0.4163 -0.8642
vn -0.3985 0.5548 -0.7303
vn -0.1832 0.6629 -0.7260
vn 0.2005 0.6629 -0.7214
vn 0.4167 0.5541 -0.7206
vn -0.2834 -0.4153 -0.8644
vn -0.1333 -0.4876 -0.8628
vn 0.1538 -0.4876 -0.8594
vn 0.3003 -0.4198 -0.8565
vn 0.4161 -0.5565 -0.7192
vn 0.2005 -0.6629 -0.7214
vn -0.1832 -0.6629 -0.7260
vn -0.3986 -0.5543 -0.7307
vn -0.5122 0.7051 -0.4904
vn -0.2378 0.8454 -0.4782
vn 0.2488 0.8445 -0.4743
vn 0.5251 0.7029 -0.4798
vn 0.5251 -0.7029 -0.4798
vn 0.2488 -0.8445 -0.4743
vn -0.2378 -0.8454 -0.4782
vn -0.5122 -0.7051 -0.4904
vn 0.1122 0.1381 -0.9840
vn 0.0753 0.1929 -0.9783
vn -0.0519 0.1929 -0.9798
vn -0.0906 0.1409 -0.9859
vn -0.0912 -0.1400 -0.9859
vn -0.0519 -0.1929 -0.9798
vn 0.0753 -0.1929 -0.9783
vn 0.1099 -0.1417 -0.9838
vn 0.0103 0.5087 -0.8609
vn 0.0086 0.6913 -0.7225
vn 0.0103 -0.5087 -0.8609
vn 0.0086 -0.6913 -0.7225
vn 0.0056 0.8791 -0.4765
vn 0.0056 -0.8791 -0.4765
vn 0.0117 0.2212 -0.9752
vn 0.0117 -0.2212 -0.9752
vn -0.9290 -0.2695 -0.2535
vn -0.9290 0.2695 -0.2535
vn 0.9301 0.2806 -0.2368
vn 0.9301 -0.2806 -0.2368
vn -0.5683 0.7894 -0.2323
vn -0.2678 0.9367 -0.2255
vn 0.2731 0.9361 -0.2214
vn 0.5779 0.7853 -0.2223
vn 0.5779 -0.7853 -0.2223
vn 0.2731 -0.9361 -0.2214
vn -0.2678 -0.9367 -0.2255
vn -0.5683 -0.7894 -0.2323
vn 0.0028 0.9744 -0.2247
vn 0.0028 -0.9744 -0.2247
vn -0.9606 -0.2677 -0.0744
vn -0.9606 0.2677 -0.0744
vn 0.5893 0.8060 -0.0559
vn 0.9573 0.2833 -0.0578
vn 0.9573 -0.2833 -0.0578
vn -0.5819 -0.8106 -0.0660
vn -0.5819 0.8106 -0.0660
vn -0.2771 0.9588 -0.0622
vn 0.0007 0.9982 -0.0605
vn 0.2783 0.9587 -0.0578
vn 0.5893 -0.8060 -0.0559
vn 0.2783 -0.9587 -0.0578
vn 0.0007 -0.9982 -0.0605
vn -0.2771 -0.9588 -0.0622
vn -0.9509 -0.2674 0.1560
vn -0.9509 0.2674 0.1560
vn 0.5808 0.7991 0.1556
vn 0.9435 0.2842 0.1708
vn 0.9435 -0.2842 0.1708
vn -0.5775 -0.8032 0.1462
vn -0.5775 0.8032 0.1462
vn -0.2753 0.9502 0.1460
vn -0.0017 0.9889 0.1487
vn 0.2720 0.9505 0.1504
vn 0.5808 -0.7991 0.1556
vn 0.2720 -0.9505 0.1504
vn -0.0017 -0.9889 0.1487
vn -0.2753 -0.9502 0.1460
vn -0.8744 -0.2631 0.4076
vn -0.8744 0.2631 0.4076
vn 0.5444 0.7393 0.3963
vn 0.8618 0.2756 0.4258
vn 0.8618 -0.2756 0.4258
vn -0.5484 -0.7428 0.3842
vn -0.5484 0.7428 0.3842
vn -0.2611 0.8871 0.3807
vn -0.0046 0.9227 0.3855
vn 0.2519 0.8871 0.3868
vn 0.5444 -0.7393 0.3963
vn 0.2519 -0.8871 0.3868
vn -0.0046 -0.9227 0.3855
vn -0.2611 -0.8871 0.3807
vn -0.6168 -0.2047 0.7601
vn -0.6168 0.2047 0.7601
vn 0.3745 0.5182 0.7689
vn 0.5697 0.1936 0.7987
vn 0.5697 -0.1936 0.7987
vn -0.4028 -0.5347 0.7428
vn -0.4028 0.5347 0.7428
vn -0.1933 0.6470 0.7376
vn -0.0084 0.6770 0.7359
vn 0.1741 0.6389 0.7493
vn 0.3745 -0.5182 0.7689
vn 0.1741 -0.6389 0.7493
vn -0.0084 -0.6770 0.7359
vn -0.1933 -0.6470 0.7376
vn -0.1506 -0.0455 0.9875
vn -0.1506 0.0455 0.9875
vn 0.0996 0.1318 0.9863
vn 0.1168 0.0408 0.9923
vn 0.1168 -0.0408 0.9923
vn -0.1304 -0.1361 0.9821
vn -0.1304 0.1361 0.9821
vn -0.0798 0.2074 0.9750
vn -0.0121 0.2365 0.9716
vn 0.0542 0.2031 0.9776
vn 0.0996 -0.1318 0.9863
vn 0.0542 -0.2031 0.9776
vn -0.0121 -0.2365 0.9716
vn -0.0798 -0.2074 0.9750
vn -0.3922 0.3082 -0.8667
vn -0.5540 -0.4095 -0.7248
vn -0.7000 -0.5077 -0.5022
vn -0.0996 0.0785 -0.9919
vn -0.5544 0.4102 -0.7241
vn -0.3934 -0.3069 -0.8666
vn -0.7000 0.5077 -0.5022
vn -0.0999 -0.0784 -0.9919
vn -0.7870 -0.5678 -0.2412
vn -0.7870 0.5678 -0.2412
vn -0.8101 -0.5821 -0.0702
vn -0.8101 0.5821 -0.0702
vn -0.8033 -0.5764 0.1503
vn -0.8033 0.5764 0.1503
vn -0.7489 -0.5347 0.3914
vn -0.7489 0.5347 0.3914
vn -0.5506 -0.3896 0.7382
vn -0.5506 0.3896 0.7382
vn -0.1324 -0.0866 0.9874
vn -0.1324 0.0866 0.9874
vn 0.5719 0.4096 -0.7107
vn 0.4100 -0.3098 -0.8578
vn 0.7121 0.5084 -0.4841
vn 0.1263 -0.0814 -0.9886
vn 0.4143 0.3056 -0.8573
vn 0.5736 -0.4125 -0.7077
vn 0.7121 -0.5084 -0.4841
vn 0.1275 0.0815 -0.9885
vn 0.7918 0.5678 -0.2249
vn 0.7918 -0.5678 -0.2249
vn 0.8109 0.5826 -0.0553
vn 0.8109 -0.5826 -0.0553
vn 0.8004 0.5776 0.1602
vn 0.8004 -0.5776 0.1602
vn 0.7413 0.5366 0.4031
vn 0.7413 -0.5366 0.4031
vn 0.5098 0.3749 0.7743
vn 0.5098 -0.3749 0.7743
vn 0.1104 0.0863 0.9901
vn 0.1104 -0.0863 0.9901
vt 0.375000 0.000000
vt 0.625000 0.000000
vt 0.625000 0.250000
vt 0.375000 0.250000
vt 0.375000 0.475000
vt 0.625000 0.475000
vt 0.625000 0.500000
vt 0.375000 0.500000
vt 0.625000 0.750000
vt 0.375000 0.750000
vt 0.375000 0.975000
vt 0.625000 0.975000
vt 0.625000 1.000000
vt 0.375000 1.000000
vt 0.625000 0.850000
vt 0.625000 0.800000
vt 0.625000 0.775000
vt 0.625000 0.775000
vt 0.625000 0.275000
vt 0.350000 0.500000
vt 0.350000 0.750000
vt 0.375000 0.275000
vt 0.375000 0.300000
vt 0.375000 0.350000
vt 0.378289 0.375000
vt 0.375000 0.400000
vt 0.375000 0.375000
vt 0.375000 0.450000
vt 0.375000 0.775000
vt 0.375000 0.800000
vt 0.375000 0.775000
vt 0.375000 0.850000
vt 0.378289 0.875000
vt 0.375000 0.900000
vt 0.375000 0.875000
vt 0.375000 0.950000
vt 0.150000 0.500000
vt 0.175000 0.500000
vt 0.175000 0.750000
vt 0.150000 0.750000
vt 0.225000 0.500000
vt 0.225000 0.750000
vt 0.250000 0.495965
vt 0.275000 0.500000
vt 0.275000 0.750000
vt 0.250000 0.754035
vt 0.325000 0.500000
vt 0.325000 0.750000
vt 0.625000 0.450000
vt 0.625000 0.475000
vt 0.625000 0.400000
vt 0.625000 0.375000
vt 0.625000 0.350000
vt 0.625000 0.375000
vt 0.625000 0.300000
vt 0.625000 0.950000
vt 0.625000 0.900000
vt 0.625000 0.875000
vt 0.625000 0.475000
vt 0.625000 0.475000
vt 0.625000 0.475000
vt 0.625000 0.775000
vt 0.850000 0.500000
vt 0.875000 0.500000
vt 0.875000 0.750000
vt 0.850000 0.750000
vt 0.650000 0.500000
vt 0.675000 0.500000
vt 0.675000 0.750000
vt 0.650000 0.750000
vt 0.725000 0.500000
vt 0.725000 0.750000
vt 0.750000 0.495965
vt 0.775000 0.500000
vt 0.775000 0.750000
vt 0.750000 0.754035
vt 0.825000 0.500000
vt 0.825000 0.750000
vt 0.125000 0.500000
vt 0.125000 0.750000
s 1
f 1/1/1 2/2/2 4/3/4 3/4/3
f 165/5/165 161/6/161 8/7/8 7/8/7
f 7/8/7 8/7/8 6/9/6 5/10/5
f 146/11/146 142/12/142 2/13/2 1/14/1
f 7/8/7 5/10/5 16/10/16 15/8/15
f 6/9/6 8/7/8 11/7/11 12/9/12
f 38/15/38 37/16/37 65/16/65 66/15/66
f 4/3/4 2/2/2 9/2/9 10/3/10
f 166/17/166 6/9/6 12/9/12 167/18/167
f 145/19/145 4/3/4 10/3/10 147/19/147
f 168/20/168 15/8/15 16/10/16 164/21/164
f 146/11/146 1/14/1 14/14/14 148/11/148
f 165/5/165 7/8/7 15/8/15 168/5/168
f 1/1/1 3/4/3 13/4/13 14/1/14
f 141/22/141 20/23/20 44/23/44 144/22/144
f 20/23/20 19/24/19 43/24/43 44/23/44
f 49/25/49 18/26/18 42/26/42 55/27/55
f 18/26/18 17/28/17 41/28/41 42/26/42
f 162/29/162 28/30/28 48/30/48 164/31/164
f 28/30/28 27/32/27 47/32/47 48/30/48
f 51/33/51 26/34/26 46/34/46 56/35/56
f 26/34/26 25/36/25 45/36/45 46/34/46
f 144/37/144 44/38/44 45/39/45 148/40/148
f 44/38/44 43/41/43 46/42/46 45/39/45
f 55/43/55 42/44/42 47/45/47 56/46/56
f 42/44/42 41/47/41 48/48/48 47/45/47
f 161/6/161 24/49/24 36/49/36 163/50/163
f 24/49/24 23/51/23 35/51/35 36/49/36
f 50/52/50 22/53/22 34/53/34 53/54/53
f 22/53/22 21/55/21 33/55/33 34/53/34
f 142/12/142 32/56/32 40/56/40 143/12/143
f 32/56/32 31/57/31 39/57/39 40/56/40
f 52/58/52 30/15/30 38/15/38 54/58/54
f 30/15/30 29/16/29 37/16/37 38/15/38
f 10/3/10 9/2/9 57/2/57 58/3/58
f 167/18/167 12/9/12 60/9/60 170/17/170
f 36/49/36 35/51/35 63/51/63 64/49/64
f 35/51/35 53/54/53 69/54/69 63/51/63
f 162/29/162 166/17/166 29/16/29 28/30/28
f 28/30/28 29/16/29 30/15/30 27/32/27
f 51/33/51 52/58/52 31/57/31 26/34/26
f 26/34/26 31/57/31 32/56/32 25/36/25
f 141/22/141 145/19/145 21/55/21 20/23/20
f 20/23/20 21/55/21 22/53/22 19/24/19
f 49/25/49 50/52/50 23/51/23 18/26/18
f 18/26/18 23/51/23 24/49/24 17/28/17
f 19/24/19 22/53/22 50/52/50 49/25/49
f 27/32/27 30/15/30 52/58/52 51/33/51
f 54/58/54 38/15/38 66/15/66 70/58/70
f 31/57/31 52/58/52 54/58/54 39/57/39
f 23/51/23 50/52/50 53/54/53 35/51/35
f 43/41/43 55/43/55 56/46/56 46/42/46
f 27/32/27 51/33/51 56/35/56 47/32/47
f 19/24/19 49/25/49 55/27/55 43/24/43
f 70/58/70 66/15/66 82/15/82 83/58/83
f 60/9/60 59/7/59 74/7/74 75/9/75
f 66/15/66 65/16/65 81/16/81 82/15/82
f 69/54/69 62/53/62 78/53/78 79/54/79
f 169/59/169 64/49/64 73/49/73 171/50/171
f 170/17/170 60/9/60 75/9/75 172/17/172
f 39/57/39 54/58/54 70/58/70 67/57/67
f 163/50/163 36/49/36 64/49/64 169/59/169
f 12/9/12 11/7/11 59/7/59 60/9/60
f 40/56/40 39/57/39 67/57/67 68/56/68
f 147/19/147 10/3/10 58/3/58 150/19/150
f 53/54/53 34/53/34 62/53/62 69/54/69
f 143/12/143 40/56/40 68/56/68 149/12/149
f 34/53/34 33/55/33 61/55/61 62/53/62
f 152/19/152 72/3/72 86/3/86 154/19/154
f 76/56/76 84/57/84 98/57/98 90/56/90
f 151/12/151 76/56/76 90/56/90 153/12/153
f 84/57/84 83/58/83 97/58/97 98/57/98
f 83/58/83 82/15/82 96/15/96 97/58/97
f 75/9/75 74/7/74 88/7/88 89/9/89
f 67/57/67 70/58/70 83/58/83 84/57/84
f 149/12/149 68/56/68 76/56/76 151/12/151
f 68/56/68 67/57/67 84/57/84 76/56/76
f 150/19/150 58/3/58 72/3/72 152/19/152
f 62/53/62 61/55/61 77/55/77 78/53/78
f 63/51/63 69/54/69 79/54/79 80/51/80
f 64/49/64 63/51/63 80/51/80 73/49/73
f 58/3/58 57/2/57 71/2/71 72/3/72
f 86/3/86 85/2/85 99/2/99 100/3/100
f 87/49/87 94/51/94 108/51/108 101/49/101
f 94/51/94 93/54/93 107/54/107 108/51/108
f 92/53/92 91/55/91 105/55/105 106/53/106
f 154/19/154 86/3/86 100/3/100 156/19/156
f 90/56/90 98/57/98 112/57/112 104/56/104
f 78/53/78 77/55/77 91/55/91 92/53/92
f 80/51/80 79/54/79 93/54/93 94/51/94
f 73/49/73 80/51/80 94/51/94 87/49/87
f 72/3/72 71/2/71 85/2/85 86/3/86
f 172/17/172 75/9/75 89/9/89 174/17/174
f 171/50/171 73/49/73 87/49/87 173/60/173
f 79/54/79 78/53/78 92/53/92 93/54/93
f 82/15/82 81/16/81 95/16/95 96/15/96
f 107/54/107 106/53/106 120/53/120 121/54/121
f 175/60/175 101/49/101 115/49/115 177/61/177
f 176/17/176 103/9/103 117/9/117 178/62/178
f 100/3/100 99/2/99 113/2/113 114/3/114
f 101/49/101 108/51/108 122/51/122 115/49/115
f 108/51/108 107/54/107 121/54/121 122/51/122
f 174/17/174 89/9/89 103/9/103 176/17/176
f 173/60/173 87/49/87 101/49/101 175/60/175
f 93/54/93 92/53/92 106/53/106 107/54/107
f 96/15/96 95/16/95 109/16/109 110/15/110
f 89/9/89 88/7/88 102/7/102 103/9/103
f 97/58/97 96/15/96 110/15/110 111/58/111
f 98/57/98 97/58/97 111/58/111 112/57/112
f 153/12/153 90/56/90 104/56/104 155/12/155
f 125/58/125 124/15/124 138/15/138 139/58/139
f 117/9/117 116/7/116 130/7/130 131/9/131
f 124/15/124 123/16/123 137/16/137 138/15/138
f 121/54/121 120/53/120 134/53/134 135/54/135
f 177/61/177 115/49/115 129/49/129 179/50/179
f 178/62/178 117/9/117 131/9/131 180/17/180
f 110/15/110 109/16/109 123/16/123 124/15/124
f 103/9/103 102/7/102 116/7/116 117/9/117
f 111/58/111 110/15/110 124/15/124 125/58/125
f 112/57/112 111/58/111 125/58/125 126/57/126
f 155/12/155 104/56/104 118/56/118 157/12/157
f 104/56/104 112/57/112 126/57/126 118/56/118
f 156/19/156 100/3/100 114/3/114 158/19/158
f 106/53/106 105/55/105 119/55/119 120/53/120
f 160/63/160 128/64/128 127/65/127 159/66/159
f 179/67/179 129/68/129 137/69/137 180/70/180
f 129/68/129 136/71/136 138/72/138 137/69/137
f 135/73/135 134/74/134 140/75/140 139/76/139
f 134/74/134 133/77/133 132/78/132 140/75/140
f 136/71/136 135/73/135 139/76/139 138/72/138
f 126/57/126 125/58/125 139/58/139 140/57/140
f 157/12/157 118/56/118 132/56/132 159/12/159
f 118/56/118 126/57/126 140/57/140 132/56/132
f 158/19/158 114/3/114 128/3/128 160/19/160
f 120/53/120 119/55/119 133/55/133 134/53/134
f 122/51/122 121/54/121 135/54/135 136/51/136
f 115/49/115 122/51/122 136/51/136 129/49/129
f 114/3/114 113/2/113 127/2/127 128/3/128
f 119/55/119 158/19/158 160/19/160 133/55/133
f 113/13/113 157/12/157 159/12/159 127/13/127
f 133/77/133 160/63/160 159/66/159 132/78/132
f 105/55/105 156/19/156 158/19/158 119/55/119
f 99/13/99 155/12/155 157/12/157 113/13/113
f 85/13/85 153/12/153 155/12/155 99/13/99
f 91/55/91 154/19/154 156/19/156 105/55/105
f 61/55/61 150/19/150 152/19/152 77/55/77
f 57/13/57 149/12/149 151/12/151 71/13/71
f 71/13/71 151/12/151 153/12/153 85/13/85
f 77/55/77 152/19/152 154/19/154 91/55/91
f 9/13/9 143/12/143 149/12/149 57/13/57
f 33/55/33 147/19/147 150/19/150 61/55/61
f 3/4/3 4/3/4 145/19/145 141/22/141
f 2/13/2 142/12/142 143/12/143 9/13/9
f 13/79/13 144/37/144 148/40/148 14/80/14
f 3/4/3 141/22/141 144/22/144 13/4/13
f 25/36/25 146/11/146 148/11/148 45/36/45
f 21/55/21 145/19/145 147/19/147 33/55/33
f 25/36/25 32/56/32 142/12/142 146/11/146
f 130/7/130 179/67/179 180/70/180 131/9/131
f 123/16/123 178/62/178 180/17/180 137/16/137
f 116/7/116 177/61/177 179/50/179 130/7/130
f 88/7/88 173/60/173 175/60/175 102/7/102
f 95/16/95 174/17/174 176/17/176 109/16/109
f 109/16/109 176/17/176 178/62/178 123/16/123
f 102/7/102 175/60/175 177/61/177 116/7/116
f 74/7/74 171/50/171 173/60/173 88/7/88
f 81/16/81 172/17/172 174/17/174 95/16/95
f 11/7/11 163/50/163 169/59/169 59/7/59
f 65/16/65 170/17/170 172/17/172 81/16/81
f 59/7/59 169/59/169 171/50/171 74/7/74
f 5/10/5 6/9/6 166/17/166 162/29/162
f 37/16/37 167/18/167 170/17/170 65/16/65
f 8/7/8 161/6/161 163/50/163 11/7/11
f 5/10/5 162/29/162 164/31/164 16/10/16
f 17/28/17 165/5/165 168/5/168 41/28/41
f 41/47/41 168/20/168 164/21/164 48/48/48
f 29/16/29 166/17/166 167/18/167 37/16/37
f 17/28/17 24/49/24 161/6/161 165/5/165
